<svg width="40" height="41" viewBox="0 0 40 41" fill="none" xmlns="http://www.w3.org/2000/svg">
<path d="M12.1663 0.745938H12.6663V0.736328H28.571C34.5356 0.736328 39.4181 5.72102 39.4181 11.8484V28.6223C39.4181 34.75 34.5353 39.7344 28.5804 39.7344H12.1663C6.20035 39.7344 1.30981 34.7579 1.30981 28.6416V11.858C1.30981 5.73117 6.20115 0.745938 12.1663 0.745938ZM3.31814 11.8666V11.8676V28.6512C3.31814 33.6373 7.2457 37.668 12.1663 37.668H28.5804C33.4836 37.668 37.4097 33.6358 37.4097 28.632V11.858C37.4097 6.85373 33.4833 2.82198 28.571 2.82198H12.1663C7.25349 2.82198 3.32807 6.85405 3.31814 11.8666ZM31.4025 7.93603C31.4025 7.3461 31.8565 6.89801 32.4067 6.89801C32.9568 6.89801 33.4108 7.3461 33.4108 7.93603C33.4108 8.52596 32.9568 8.97404 32.4067 8.97404C31.8565 8.97404 31.4025 8.52596 31.4025 7.93603ZM10.3442 20.2402C10.3442 14.5844 14.8689 9.97404 20.3733 9.97404C25.8778 9.97404 30.4025 14.5844 30.4025 20.2402C30.4025 25.8959 25.8778 30.5063 20.3733 30.5063C14.8689 30.5063 10.3442 25.8959 10.3442 20.2402ZM28.3942 20.2402C28.3942 15.7066 24.834 12.0501 20.3733 12.0501C15.9127 12.0501 12.3525 15.7066 12.3525 20.2402C12.3525 24.7737 15.9127 28.4302 20.3733 28.4302C24.834 28.4302 28.3942 24.7737 28.3942 20.2402Z" fill="#070707" stroke="#070707"/>
</svg>
