<svg width="41" height="41" viewBox="0 0 41 41" fill="none" xmlns="http://www.w3.org/2000/svg">
<g clip-path="url(#clip0_293328_32)">
<path d="M34.3201 0.453125H5.96036C2.72049 0.453125 0.0847168 3.0816 0.0847168 6.3125V34.5938C0.0847168 37.8246 2.72049 40.4531 5.96036 40.4531H34.3201C37.56 40.4531 40.1958 37.8246 40.1958 34.5938V6.3125C40.1958 3.0816 37.56 0.453125 34.3201 0.453125ZM37.8455 34.5938C37.8455 36.5322 36.264 38.1094 34.3201 38.1094H5.96036C4.0165 38.1094 2.43497 36.5322 2.43497 34.5938V6.3125C2.43497 4.37402 4.0165 2.79688 5.96036 2.79688H34.3201C36.264 2.79688 37.8455 4.37402 37.8455 6.3125V34.5938Z" fill="#070707" stroke="#070707" stroke-width="0.5"/>
<path d="M18.9651 16.9375C18.9651 14.3527 16.8566 12.25 14.2646 12.25H7.21387V28.6562H14.2646C16.8566 28.6562 18.9651 26.5536 18.9651 23.9688C18.9651 22.5698 18.3467 21.3128 17.3686 20.4531C18.3467 19.5934 18.9651 18.3364 18.9651 16.9375ZM16.6149 23.9688C16.6149 25.2612 15.5606 26.3125 14.2646 26.3125H9.56412V21.625H14.2646C15.5606 21.625 16.6149 22.6763 16.6149 23.9688ZM9.56412 19.2812V14.5938H14.2646C15.5606 14.5938 16.6149 15.6451 16.6149 16.9375C16.6149 18.2299 15.5606 19.2812 14.2646 19.2812H9.56412Z" fill="#070707" stroke="#070707" stroke-width="0.5"/>
<path d="M27.1911 16.9375C23.9512 16.9375 21.3154 19.566 21.3154 22.7969C21.3154 26.0278 23.9512 28.6562 27.1911 28.6562C29.2821 28.6562 31.2321 27.5341 32.2799 25.7275L30.2455 24.5538C29.6163 25.6387 28.4458 26.3125 27.1911 26.3125C25.6588 26.3125 24.3521 25.3329 23.867 23.9688H33.0667V22.7969C33.0667 19.566 30.4309 16.9375 27.1911 16.9375ZM23.867 21.625C24.3521 20.2609 25.6588 19.2812 27.1911 19.2812C28.7233 19.2812 30.03 20.2609 30.5151 21.625H23.867Z" fill="#070707" stroke="#070707" stroke-width="0.5"/>
<path d="M22.4905 12.25H31.8915V14.5938H22.4905V12.25Z" fill="#070707" stroke="#070707" stroke-width="0.5"/>
</g>
<defs>
<clipPath id="clip0_293328_32">
<rect width="40.111" height="40" fill="white" transform="translate(0.0847168 0.453125)"/>
</clipPath>
</defs>
</svg>
