<svg width="40" height="41" viewBox="0 0 40 41" fill="none" xmlns="http://www.w3.org/2000/svg">
<path d="M30.6636 7.35502L30.9693 6.97078L30.5907 6.65813C27.6753 4.25099 23.9726 2.8131 19.9218 2.8131C18.5026 2.8131 17.1267 3.01192 15.8239 3.33763L15.0968 3.51942L15.5439 4.12097C16.9345 5.99184 18.9322 8.8174 21.3246 13.2427L21.5312 13.6249L21.9385 13.4737C26.4658 11.7926 29.1786 9.22116 30.6636 7.35502ZM13.3633 4.59724L13.1183 4.27446L12.7517 4.44735C8.2556 6.56817 4.84923 10.619 3.50458 15.566L3.3385 16.177L3.97134 16.1969C6.44724 16.2748 12.3654 16.1581 18.9231 14.4013L19.5416 14.2356L19.2309 13.6758C16.6875 9.09206 14.5485 6.15852 13.3633 4.59724ZM32.8171 8.85622L32.4294 8.39559L32.0478 8.86132C30.3918 10.8825 27.5165 13.5079 22.9642 15.2892L22.4579 15.4873L22.6976 15.9753C23.6791 17.9734 24.6313 20.1027 25.4989 22.4022L25.6418 22.781L26.0421 22.7199C29.3354 22.2171 32.3796 22.217 34.679 22.3971C35.2381 22.4435 35.5989 22.4956 36.0188 22.5563C36.1072 22.569 36.1983 22.5822 36.2943 22.5957L36.8064 22.668L36.8614 22.1538C36.9288 21.5232 36.9676 20.89 36.9676 20.2354C36.9676 15.8818 35.3902 11.9133 32.8171 8.85622ZM20.6701 16.4835L20.485 16.1124L20.086 16.2257C12.3727 18.417 5.57803 18.3501 3.46198 18.2647L2.98015 18.2452L2.94327 18.726L2.94069 18.7597C2.90413 19.2362 2.8666 19.7253 2.8666 20.245C2.8666 25.4787 5.13097 30.1507 8.70191 33.3476L9.07471 33.6814L9.40819 33.3083C10.3033 32.307 11.5039 31.0317 12.9635 29.7005L12.9655 29.6987C15.7118 27.167 19.2452 24.4882 23.0942 23.3194L23.6111 23.1625L23.4147 22.6592C22.5532 20.4515 21.6256 18.3993 20.6701 16.4835ZM30.1596 24.3797L30.1596 24.3797L30.1542 24.3799C29.1431 24.4287 28.0668 24.5262 26.9723 24.6722L26.3775 24.7515L26.5628 25.3223C27.4866 28.1661 28.2507 31.1787 28.7443 34.3125L28.8686 35.1014L29.5239 34.645C32.71 32.4264 35.12 29.1294 36.2427 25.259L36.408 24.6894L35.8186 24.6229C34.3586 24.458 32.5073 24.2919 30.1596 24.3797ZM24.5036 25.565L24.35 25.1116L23.8904 25.2454C20.5089 26.2292 16.9719 28.7805 14.2915 31.2409C12.9964 32.4195 11.9504 33.5382 11.111 34.4546L10.6983 34.9051L11.2216 35.2206C13.7671 36.7549 16.723 37.6576 19.9124 37.6576C22.306 37.6576 24.5638 37.1519 26.6257 36.2609L26.9737 36.1105L26.9228 35.7348C26.4385 32.1609 25.5843 28.7548 24.5036 25.565ZM0.867676 20.2354C0.867676 9.48214 9.43492 0.736328 19.9218 0.736328C30.4087 0.736328 38.9759 9.48214 38.9759 20.2354C38.9759 30.9886 30.4087 39.7344 19.9218 39.7344C9.43492 39.7344 0.867676 30.9886 0.867676 20.2354Z" fill="#070707" stroke="#070707"/>
</svg>
